# xmcd CD database file
#
# Track frame offsets:
#	150
#	21366
#	47902
#	77294
#
# Disc length: 1448 seconds
#
# Revision: 0
# Processed by: cddbd v1.5.1PL0 Copyright (c) Steve Scherf et al.
# Submitted via: CDex 1.51
#
DISCID=2505a604
DTITLE=激☆娘 - 激☆店 THEドラマCD 先行限定版 -ぷれしゃすしーでぃー-
DYEAR=2004
DGENRE=Vocal
TTITLE0=第1話「恋の話は、夜ひらく」
TTITLE1=第2話「怪盗参上!」
TTITLE2=激☆店 THEドラマCD 反省会
TTITLE3=激☆店 THEドラマCD 企画会議
EXTD=YEAR: 20041229
EXTT0=
EXTT1=
EXTT2=
EXTT3=
PLAYORDER=
